<?xml version="1.0" encoding="UTF-8"?>
<svg width="805px" height="326px" viewBox="0 0 805 326" version="1.1" xmlns="http://www.w3.org/2000/svg" xmlns:xlink="http://www.w3.org/1999/xlink">
    <!-- Generator: Sketch 40.1 (33804) - http://www.bohemiancoding.com/sketch -->
    <title>Group 2</title>
    <desc>Created with Sketch.</desc>
    <defs></defs>
    <g id="Page-1" stroke="none" stroke-width="1" fill="none" fill-rule="evenodd" opacity="0.414005888">
        <g id="A4" transform="translate(-57.000000, -3.000000)">
            <g id="Group-2" transform="translate(-7.000000, -11.000000)">
                <ellipse id="Oval" stroke="#DB3936" stroke-width="3" cx="866.592652" cy="39.5" rx="10.5926518" ry="9.5"></ellipse>
                <path d="M76.7076677,338.612241 C76.7076677,338.612241 88.4153355,327.29899 88.4153355,321.5 C88.4153355,315.70101 83.1736341,311 76.7076677,311 C70.2417014,311 65,315.70101 65,321.5 C65,327.29899 76.7076677,338.612241 76.7076677,338.612241 Z" id="Oval-2" stroke="#2D4059" stroke-width="2"></path>
                <polyline id="Path-2" stroke="#DB3936" stroke-width="2" points="585.565039 325 580 337.052775 586.690096 337.158325 580 347.750995"></polyline>
                <g id="Group" transform="translate(781.000000, 280.000000)" stroke="#3C4E65">
                    <ellipse id="Oval-3" stroke-width="2" cx="8.36261981" cy="7.5" rx="8.36261981" ry="7.5"></ellipse>
                    <path d="M2.23003195,20 L15.6102236,20" id="Line" stroke-linecap="square"></path>
                    <path d="M4.4600639,23 L13.3801917,23" id="Line" stroke-linecap="square"></path>
                    <path d="M6.69009585,26 L11.1501597,26" id="Line" stroke-linecap="square"></path>
                </g>
                <g id="home" transform="translate(74.000000, 26.500000) rotate(-15.000000) translate(-74.000000, -26.500000) translate(65.000000, 15.000000)" stroke-width="2">
                    <path d="M0.5,22.5 L8.98528137,14.0147186" id="Line" stroke="#5BE9D5" stroke-linecap="square"></path>
                    <path d="M9.5,13.5 L17.9852814,21.9852814" id="Line" stroke="#5BE9D5" stroke-linecap="square"></path>
                    <circle id="Oval-4" stroke="#19E0C3" cx="9.5" cy="4.5" r="4.5"></circle>
                </g>
            </g>
        </g>
    </g>
</svg>