<svg xmlns="http://www.w3.org/2000/svg" xmlns:xlink="http://www.w3.org/1999/xlink" width="78" height="60" viewBox="0 0 78 60">
  <defs>
    <path id="hamburger-icon-a" d="M39,0 C49.8081108,0 62.259025,3.7947703 69.3781137,8.90761162 C74.444534,12.5462519 76,17.9146772 76,17.9146772 L2.00045557,17.9146772 C2.00045557,17.9146772 1.84483328,12.790463 7.28613731,8.95733858 C14.403146,3.9437647 28.5158009,4.5061666e-16 39,0 Z"/>
    <rect id="hamburger-icon-b" width="78" height="5" y="33" rx="2"/>
    <path id="hamburger-icon-c" d="M1,53 L77,53 L77,57.9940809 C77,59.1019194 76.106918,60 75.0062492,60 L2.9937508,60 C1.89263264,60 1,59.1134452 1,57.9940809 L1,53 Z"/>
  </defs>
  <g fill="none" fill-rule="evenodd">
    <use fill="#FFF" xlink:href="#hamburger-icon-a"/>
    <path stroke="#FFF" d="M75.2960812,17.4146772 L2.52026372,17.4146772 C2.55639917,17.0055771 2.64367401,16.4827408 2.80832718,15.876492 C3.19580365,14.4498134 3.90534219,13.0275397 5.01771455,11.6968736 C5.72177899,10.8546424 6.56973083,10.0736172 7.57408789,9.36609824 C14.5671869,4.4398125 28.5619502,0.5 39,0.5 C49.5351683,0.5 61.9348524,4.17754139 69.0864463,9.31372752 C70.2121878,10.1222211 71.2160608,11.0585993 72.1048261,12.0981186 C73.2232498,13.4062514 74.1054676,14.8090827 74.7758743,16.2111536 C74.9823355,16.6429409 75.155017,17.0468685 75.2960812,17.4146772 Z"/>
    <use fill="#FFF" xlink:href="#hamburger-icon-b"/>
    <rect width="77" height="4" x=".5" y="33.5" stroke="#FFF" rx="2"/>
    <use fill="#FFF" xlink:href="#hamburger-icon-c"/>
    <path stroke="#FFF" d="M1.5,53.5 L76.5,53.5 L76.5,57.9940809 C76.5,58.8262824 75.830265,59.5 75.0062492,59.5 L2.9937508,59.5 C2.16503894,59.5 1.5,58.8335578 1.5,57.9940809 L1.5,53.5 Z"/>
    <circle cx="59.5" cy="11.5" r="1.5" fill="#000" stroke="#FFF"/>
    <circle cx="42.5" cy="5.5" r="1.5" fill="#000" stroke="#FFF"/>
    <circle cx="19.5" cy="15.5" r="1.5" fill="#000" stroke="#FFF"/>
  </g>
</svg>
